<mxfile host="app.diagrams.net" modified="2021-08-13T17:46:12.179Z" agent="5.0 (Macintosh; Intel Mac OS X 10_15_7) AppleWebKit/537.36 (KHTML, like Gecko) Chrome/92.0.4515.131 Safari/537.36" etag="4L0--qmpEYwL-rt2tgDv" version="14.9.6" type="github">
  <diagram id="CUjo6yYS2-jJRDScZkBN" name="Page-1">
    <mxGraphModel dx="1751" dy="1163" grid="1" gridSize="10" guides="1" tooltips="1" connect="1" arrows="1" fold="1" page="0" pageScale="1" pageWidth="1600" pageHeight="900" background="none" math="0" shadow="1">
      <root>
        <mxCell id="0" />
        <mxCell id="1" parent="0" />
        <mxCell id="0A0NfgN1Bw4R6kFDzpNf-40" value="" style="rounded=1;whiteSpace=wrap;html=1;fontSize=14;strokeColor=#9673a6;strokeWidth=2;fillColor=#e1d5e7;" parent="1" vertex="1">
          <mxGeometry x="460" y="-60" width="710" height="530" as="geometry" />
        </mxCell>
        <mxCell id="hTWjDd71BqVDaGFgW95k-47" value="" style="ellipse;shape=cloud;whiteSpace=wrap;html=1;dashed=1;fillColor=#f5f5f5;strokeWidth=2;strokeColor=#666666;fontColor=#333333;" parent="1" vertex="1">
          <mxGeometry x="630" y="-40" width="555" height="510" as="geometry" />
        </mxCell>
        <mxCell id="hTWjDd71BqVDaGFgW95k-2" value="" style="aspect=fixed;pointerEvents=1;shadow=0;dashed=0;html=1;strokeColor=none;labelPosition=center;verticalLabelPosition=bottom;verticalAlign=top;align=center;fillColor=#00188D;shape=mxgraph.azure.user" parent="1" vertex="1">
          <mxGeometry x="-60" width="37" height="39.36" as="geometry" />
        </mxCell>
        <mxCell id="hTWjDd71BqVDaGFgW95k-7" value="&lt;font style=&quot;font-size: 12px&quot;&gt;core&lt;br&gt;DB&lt;/font&gt;" style="shape=datastore;whiteSpace=wrap;html=1;" parent="1" vertex="1">
          <mxGeometry x="800" y="280" width="30" height="50" as="geometry" />
        </mxCell>
        <mxCell id="hTWjDd71BqVDaGFgW95k-11" value="Stellar Core" style="rounded=0;whiteSpace=wrap;html=1;" parent="1" vertex="1">
          <mxGeometry x="780" y="220" width="70" height="25" as="geometry" />
        </mxCell>
        <mxCell id="hTWjDd71BqVDaGFgW95k-23" value="" style="endArrow=classic;startArrow=classic;html=1;exitX=0.5;exitY=0;exitDx=0;exitDy=0;" parent="1" source="hTWjDd71BqVDaGFgW95k-7" edge="1">
          <mxGeometry width="50" height="50" relative="1" as="geometry">
            <mxPoint x="870" y="210" as="sourcePoint" />
            <mxPoint x="815" y="250" as="targetPoint" />
          </mxGeometry>
        </mxCell>
        <mxCell id="hTWjDd71BqVDaGFgW95k-33" value="&lt;font style=&quot;font-size: 12px&quot;&gt;core&lt;br&gt;DB&lt;/font&gt;" style="shape=datastore;whiteSpace=wrap;html=1;" parent="1" vertex="1">
          <mxGeometry x="870" y="140" width="30" height="50" as="geometry" />
        </mxCell>
        <mxCell id="hTWjDd71BqVDaGFgW95k-34" value="Stellar Core" style="rounded=0;whiteSpace=wrap;html=1;" parent="1" vertex="1">
          <mxGeometry x="850" y="80" width="70" height="25" as="geometry" />
        </mxCell>
        <mxCell id="hTWjDd71BqVDaGFgW95k-35" value="" style="endArrow=classic;startArrow=classic;html=1;exitX=0.5;exitY=0;exitDx=0;exitDy=0;" parent="1" source="hTWjDd71BqVDaGFgW95k-33" edge="1">
          <mxGeometry width="50" height="50" relative="1" as="geometry">
            <mxPoint x="940" y="70" as="sourcePoint" />
            <mxPoint x="885" y="110" as="targetPoint" />
          </mxGeometry>
        </mxCell>
        <mxCell id="hTWjDd71BqVDaGFgW95k-36" value="&lt;font style=&quot;font-size: 12px&quot;&gt;core&lt;br&gt;DB&lt;/font&gt;" style="shape=datastore;whiteSpace=wrap;html=1;" parent="1" vertex="1">
          <mxGeometry x="1000" y="180" width="30" height="50" as="geometry" />
        </mxCell>
        <mxCell id="hTWjDd71BqVDaGFgW95k-37" value="Stellar Core" style="rounded=0;whiteSpace=wrap;html=1;" parent="1" vertex="1">
          <mxGeometry x="980" y="120" width="70" height="25" as="geometry" />
        </mxCell>
        <mxCell id="hTWjDd71BqVDaGFgW95k-38" value="" style="endArrow=classic;startArrow=classic;html=1;exitX=0.5;exitY=0;exitDx=0;exitDy=0;" parent="1" source="hTWjDd71BqVDaGFgW95k-36" edge="1">
          <mxGeometry width="50" height="50" relative="1" as="geometry">
            <mxPoint x="1070" y="110" as="sourcePoint" />
            <mxPoint x="1015" y="150" as="targetPoint" />
          </mxGeometry>
        </mxCell>
        <mxCell id="hTWjDd71BqVDaGFgW95k-39" value="&lt;font style=&quot;font-size: 12px&quot;&gt;core&lt;br&gt;DB&lt;/font&gt;" style="shape=datastore;whiteSpace=wrap;html=1;" parent="1" vertex="1">
          <mxGeometry x="1020" y="340" width="30" height="50" as="geometry" />
        </mxCell>
        <mxCell id="hTWjDd71BqVDaGFgW95k-40" value="Stellar Core" style="rounded=0;whiteSpace=wrap;html=1;" parent="1" vertex="1">
          <mxGeometry x="1000" y="280" width="70" height="25" as="geometry" />
        </mxCell>
        <mxCell id="hTWjDd71BqVDaGFgW95k-41" value="" style="endArrow=classic;startArrow=classic;html=1;exitX=0.5;exitY=0;exitDx=0;exitDy=0;" parent="1" source="hTWjDd71BqVDaGFgW95k-39" edge="1">
          <mxGeometry width="50" height="50" relative="1" as="geometry">
            <mxPoint x="1090" y="270" as="sourcePoint" />
            <mxPoint x="1035" y="310" as="targetPoint" />
          </mxGeometry>
        </mxCell>
        <mxCell id="hTWjDd71BqVDaGFgW95k-42" value="" style="endArrow=classic;startArrow=classic;html=1;entryX=0;entryY=0.5;entryDx=0;entryDy=0;" parent="1" target="hTWjDd71BqVDaGFgW95k-34" edge="1">
          <mxGeometry width="50" height="50" relative="1" as="geometry">
            <mxPoint x="820" y="210" as="sourcePoint" />
            <mxPoint x="820" y="60" as="targetPoint" />
            <Array as="points">
              <mxPoint x="820" y="92" />
            </Array>
          </mxGeometry>
        </mxCell>
        <mxCell id="hTWjDd71BqVDaGFgW95k-43" value="" style="endArrow=classic;startArrow=classic;html=1;" parent="1" edge="1">
          <mxGeometry width="50" height="50" relative="1" as="geometry">
            <mxPoint x="930" y="90" as="sourcePoint" />
            <mxPoint x="1015" y="110" as="targetPoint" />
            <Array as="points">
              <mxPoint x="1015" y="90" />
            </Array>
          </mxGeometry>
        </mxCell>
        <mxCell id="hTWjDd71BqVDaGFgW95k-44" value="" style="endArrow=classic;startArrow=classic;html=1;entryX=0;entryY=0.5;entryDx=0;entryDy=0;exitX=0;exitY=0.5;exitDx=0;exitDy=0;" parent="1" source="hTWjDd71BqVDaGFgW95k-37" target="hTWjDd71BqVDaGFgW95k-40" edge="1">
          <mxGeometry width="50" height="50" relative="1" as="geometry">
            <mxPoint x="940" y="120" as="sourcePoint" />
            <mxPoint x="880" y="100" as="targetPoint" />
            <Array as="points">
              <mxPoint x="950" y="130" />
              <mxPoint x="950" y="293" />
            </Array>
          </mxGeometry>
        </mxCell>
        <mxCell id="hTWjDd71BqVDaGFgW95k-45" value="" style="endArrow=classic;html=1;" parent="1" edge="1">
          <mxGeometry width="50" height="50" relative="1" as="geometry">
            <mxPoint x="950" y="230" as="sourcePoint" />
            <mxPoint x="860" y="230" as="targetPoint" />
          </mxGeometry>
        </mxCell>
        <mxCell id="hTWjDd71BqVDaGFgW95k-48" value="&lt;font style=&quot;font-size: 14px&quot;&gt;Stellar Horizon&lt;br&gt;Server&lt;/font&gt;" style="rounded=1;whiteSpace=wrap;html=1;strokeWidth=2;fillColor=none;" parent="1" vertex="1">
          <mxGeometry x="470" y="200" width="130" height="90" as="geometry" />
        </mxCell>
        <mxCell id="hTWjDd71BqVDaGFgW95k-51" value="" style="endArrow=classic;html=1;" parent="1" edge="1">
          <mxGeometry width="50" height="50" relative="1" as="geometry">
            <mxPoint x="750" y="220" as="sourcePoint" />
            <mxPoint x="610" y="220" as="targetPoint" />
          </mxGeometry>
        </mxCell>
        <mxCell id="hTWjDd71BqVDaGFgW95k-52" value="&lt;font style=&quot;font-size: 10px&quot;&gt;Horizon&lt;br&gt;Server&lt;br&gt;DB&lt;/font&gt;" style="shape=datastore;whiteSpace=wrap;html=1;strokeColor=#000000;strokeWidth=2;fillColor=none;" parent="1" vertex="1">
          <mxGeometry x="500" y="80" width="40" height="70" as="geometry" />
        </mxCell>
        <mxCell id="hTWjDd71BqVDaGFgW95k-55" value="" style="endArrow=classic;startArrow=classic;html=1;" parent="1" edge="1">
          <mxGeometry width="50" height="50" relative="1" as="geometry">
            <mxPoint x="520" y="200" as="sourcePoint" />
            <mxPoint x="520" y="150" as="targetPoint" />
          </mxGeometry>
        </mxCell>
        <mxCell id="0A0NfgN1Bw4R6kFDzpNf-9" value="" style="rounded=1;whiteSpace=wrap;html=1;strokeColor=#6c8ebf;strokeWidth=2;fillColor=#dae8fc;" parent="1" vertex="1">
          <mxGeometry y="190" width="320" height="210" as="geometry" />
        </mxCell>
        <mxCell id="0A0NfgN1Bw4R6kFDzpNf-4" value="&lt;font style=&quot;font-size: 16px&quot;&gt;Application Mobile&lt;/font&gt;" style="rounded=0;whiteSpace=wrap;html=1;strokeColor=#000000;strokeWidth=2;fillColor=none;" parent="1" vertex="1">
          <mxGeometry x="20" y="220" width="280" height="30" as="geometry" />
        </mxCell>
        <mxCell id="0A0NfgN1Bw4R6kFDzpNf-5" value="&lt;font style=&quot;font-size: 16px&quot;&gt;Depot&lt;/font&gt;" style="rounded=0;whiteSpace=wrap;html=1;strokeColor=#000000;strokeWidth=2;fillColor=none;" parent="1" vertex="1">
          <mxGeometry x="20" y="270" width="90" height="60" as="geometry" />
        </mxCell>
        <mxCell id="0A0NfgN1Bw4R6kFDzpNf-28" value="" style="edgeStyle=orthogonalEdgeStyle;rounded=0;orthogonalLoop=1;jettySize=auto;html=1;fontSize=14;" parent="1" source="0A0NfgN1Bw4R6kFDzpNf-6" target="0A0NfgN1Bw4R6kFDzpNf-4" edge="1">
          <mxGeometry relative="1" as="geometry" />
        </mxCell>
        <mxCell id="0A0NfgN1Bw4R6kFDzpNf-6" value="&lt;font style=&quot;font-size: 16px&quot;&gt;Retrait&lt;/font&gt;" style="rounded=0;whiteSpace=wrap;html=1;strokeColor=#000000;strokeWidth=2;fillColor=none;" parent="1" vertex="1">
          <mxGeometry x="120" y="270" width="90" height="60" as="geometry" />
        </mxCell>
        <mxCell id="0A0NfgN1Bw4R6kFDzpNf-7" value="&lt;font style=&quot;font-size: 16px&quot;&gt;Paiement&lt;/font&gt;" style="rounded=0;whiteSpace=wrap;html=1;strokeColor=#000000;strokeWidth=2;fillColor=none;" parent="1" vertex="1">
          <mxGeometry x="220" y="270" width="80" height="60" as="geometry" />
        </mxCell>
        <mxCell id="0A0NfgN1Bw4R6kFDzpNf-8" value="&lt;font style=&quot;font-size: 16px&quot;&gt;Base de donnees&lt;/font&gt;" style="rounded=1;whiteSpace=wrap;html=1;strokeColor=#000000;strokeWidth=2;fillColor=none;" parent="1" vertex="1">
          <mxGeometry x="20" y="340" width="280" height="30" as="geometry" />
        </mxCell>
        <mxCell id="0A0NfgN1Bw4R6kFDzpNf-10" value="" style="endArrow=classic;startArrow=classic;html=1;exitX=1;exitY=0.25;exitDx=0;exitDy=0;entryX=0;entryY=0.5;entryDx=0;entryDy=0;" parent="1" source="0A0NfgN1Bw4R6kFDzpNf-9" target="hTWjDd71BqVDaGFgW95k-48" edge="1">
          <mxGeometry width="50" height="50" relative="1" as="geometry">
            <mxPoint x="470" y="340" as="sourcePoint" />
            <mxPoint x="520" y="290" as="targetPoint" />
          </mxGeometry>
        </mxCell>
        <mxCell id="0A0NfgN1Bw4R6kFDzpNf-11" value="&lt;font style=&quot;font-size: 14px&quot;&gt;HTTPS&lt;/font&gt;" style="text;html=1;align=center;verticalAlign=middle;resizable=0;points=[];autosize=1;strokeColor=none;" parent="1" vertex="1">
          <mxGeometry x="365" y="220" width="60" height="20" as="geometry" />
        </mxCell>
        <mxCell id="0A0NfgN1Bw4R6kFDzpNf-17" value="" style="rounded=1;whiteSpace=wrap;html=1;strokeColor=#82b366;strokeWidth=2;fillColor=#d5e8d4;" parent="1" vertex="1">
          <mxGeometry x="170" y="510" width="270" height="190" as="geometry" />
        </mxCell>
        <mxCell id="0A0NfgN1Bw4R6kFDzpNf-13" value="&lt;font style=&quot;font-size: 16px&quot;&gt;Application Web&lt;/font&gt;" style="rounded=0;whiteSpace=wrap;html=1;strokeColor=#000000;strokeWidth=2;fillColor=none;" parent="1" vertex="1">
          <mxGeometry x="180" y="530" width="250" height="30" as="geometry" />
        </mxCell>
        <mxCell id="0A0NfgN1Bw4R6kFDzpNf-14" value="&lt;font style=&quot;font-size: 16px&quot;&gt;Protocole de&lt;br&gt;Retrait&lt;/font&gt;" style="rounded=0;whiteSpace=wrap;html=1;strokeColor=#000000;strokeWidth=2;fillColor=none;" parent="1" vertex="1">
          <mxGeometry x="180" y="570" width="110" height="60" as="geometry" />
        </mxCell>
        <mxCell id="0A0NfgN1Bw4R6kFDzpNf-15" value="&lt;font style=&quot;font-size: 16px&quot;&gt;Protocole de&lt;br&gt;Depot&lt;/font&gt;" style="rounded=0;whiteSpace=wrap;html=1;strokeColor=#000000;strokeWidth=2;fillColor=none;" parent="1" vertex="1">
          <mxGeometry x="310" y="570" width="120" height="60" as="geometry" />
        </mxCell>
        <mxCell id="0A0NfgN1Bw4R6kFDzpNf-16" value="&lt;font style=&quot;font-size: 16px&quot;&gt;Base de donnees&lt;/font&gt;" style="rounded=0;whiteSpace=wrap;html=1;strokeColor=#000000;strokeWidth=2;fillColor=none;" parent="1" vertex="1">
          <mxGeometry x="180" y="640" width="250" height="40" as="geometry" />
        </mxCell>
        <mxCell id="0A0NfgN1Bw4R6kFDzpNf-18" value="" style="endArrow=classic;startArrow=classic;html=1;" parent="1" source="hTWjDd71BqVDaGFgW95k-48" edge="1">
          <mxGeometry width="50" height="50" relative="1" as="geometry">
            <mxPoint x="470" y="340" as="sourcePoint" />
            <mxPoint x="380" y="500" as="targetPoint" />
          </mxGeometry>
        </mxCell>
        <mxCell id="0A0NfgN1Bw4R6kFDzpNf-21" value="HTTPS" style="edgeLabel;html=1;align=center;verticalAlign=middle;resizable=0;points=[];" parent="0A0NfgN1Bw4R6kFDzpNf-18" vertex="1" connectable="0">
          <mxGeometry x="0.1455" y="6" relative="1" as="geometry">
            <mxPoint as="offset" />
          </mxGeometry>
        </mxCell>
        <mxCell id="0A0NfgN1Bw4R6kFDzpNf-20" value="" style="endArrow=classic;startArrow=classic;html=1;entryX=0.181;entryY=-0.026;entryDx=0;entryDy=0;entryPerimeter=0;exitX=1;exitY=1;exitDx=0;exitDy=0;" parent="1" edge="1" target="0A0NfgN1Bw4R6kFDzpNf-17">
          <mxGeometry width="50" height="50" relative="1" as="geometry">
            <mxPoint x="219.99999999999997" y="399.9999999999998" as="sourcePoint" />
            <mxPoint x="287.69000000000005" y="489.04999999999995" as="targetPoint" />
          </mxGeometry>
        </mxCell>
        <mxCell id="0A0NfgN1Bw4R6kFDzpNf-22" value="HTTPS" style="edgeLabel;html=1;align=center;verticalAlign=middle;resizable=0;points=[];" parent="0A0NfgN1Bw4R6kFDzpNf-20" vertex="1" connectable="0">
          <mxGeometry x="-0.0419" y="-6" relative="1" as="geometry">
            <mxPoint y="-1" as="offset" />
          </mxGeometry>
        </mxCell>
        <mxCell id="0A0NfgN1Bw4R6kFDzpNf-24" value="" style="outlineConnect=0;fontColor=#232F3E;gradientColor=none;fillColor=#232F3E;strokeColor=none;dashed=0;verticalLabelPosition=bottom;verticalAlign=top;align=center;html=1;fontSize=12;fontStyle=0;aspect=fixed;pointerEvents=1;shape=mxgraph.aws4.traditional_server;" parent="1" vertex="1">
          <mxGeometry x="690" y="535.67" width="76.92" height="133.33" as="geometry" />
        </mxCell>
        <mxCell id="0A0NfgN1Bw4R6kFDzpNf-25" value="" style="ellipse;shape=cloud;whiteSpace=wrap;html=1;strokeWidth=2;fillColor=#fff2cc;strokeColor=#d6b656;" parent="1" vertex="1">
          <mxGeometry x="690" y="560" width="210" height="140" as="geometry" />
        </mxCell>
        <mxCell id="0A0NfgN1Bw4R6kFDzpNf-26" value="" style="endArrow=classic;startArrow=classic;html=1;exitX=1;exitY=0.5;exitDx=0;exitDy=0;" parent="1" target="0A0NfgN1Bw4R6kFDzpNf-24" edge="1" source="0A0NfgN1Bw4R6kFDzpNf-17">
          <mxGeometry width="50" height="50" relative="1" as="geometry">
            <mxPoint x="516" y="601" as="sourcePoint" />
            <mxPoint x="520" y="350" as="targetPoint" />
          </mxGeometry>
        </mxCell>
        <mxCell id="0A0NfgN1Bw4R6kFDzpNf-27" value="HTTPS" style="edgeLabel;html=1;align=center;verticalAlign=middle;resizable=0;points=[];fontSize=14;" parent="0A0NfgN1Bw4R6kFDzpNf-26" vertex="1" connectable="0">
          <mxGeometry x="-0.0954" y="2" relative="1" as="geometry">
            <mxPoint as="offset" />
          </mxGeometry>
        </mxCell>
        <mxCell id="0A0NfgN1Bw4R6kFDzpNf-29" value="&lt;b&gt;&lt;font style=&quot;font-size: 15px&quot;&gt;&lt;u&gt;API Institution financiere&lt;/u&gt;&lt;/font&gt;&lt;/b&gt;" style="text;html=1;align=center;verticalAlign=middle;resizable=0;points=[];autosize=1;strokeColor=none;fontSize=14;" parent="1" vertex="1">
          <mxGeometry x="615" y="510" width="190" height="20" as="geometry" />
        </mxCell>
        <mxCell id="0A0NfgN1Bw4R6kFDzpNf-30" value="&lt;b&gt;&lt;font style=&quot;font-size: 17px&quot;&gt;&lt;u&gt;Anchor&lt;/u&gt;&lt;/font&gt;&lt;/b&gt;" style="text;html=1;align=center;verticalAlign=middle;resizable=0;points=[];autosize=1;strokeColor=none;fontSize=14;" parent="1" vertex="1">
          <mxGeometry x="250" y="700" width="80" height="20" as="geometry" />
        </mxCell>
        <mxCell id="0A0NfgN1Bw4R6kFDzpNf-31" value="&lt;b&gt;&lt;font style=&quot;font-size: 17px&quot;&gt;&lt;u&gt;Wallet&lt;/u&gt;&lt;/font&gt;&lt;/b&gt;" style="text;html=1;align=center;verticalAlign=middle;resizable=0;points=[];autosize=1;strokeColor=none;fontSize=14;" parent="1" vertex="1">
          <mxGeometry x="130" y="400" width="60" height="20" as="geometry" />
        </mxCell>
        <mxCell id="0A0NfgN1Bw4R6kFDzpNf-32" value="" style="strokeColor=#dddddd;shadow=1;strokeWidth=1;rounded=1;absoluteArcSize=1;arcSize=2;fontSize=14;fillColor=none;" parent="1" vertex="1">
          <mxGeometry x="90" y="101" width="130" height="44" as="geometry" />
        </mxCell>
        <mxCell id="0A0NfgN1Bw4R6kFDzpNf-33" value="HTTPS&#xa;Load Balancer" style="dashed=0;connectable=0;html=1;fillColor=#757575;strokeColor=none;shape=mxgraph.gcp2.network_load_balancer;part=1;labelPosition=right;verticalLabelPosition=middle;align=left;verticalAlign=middle;spacingLeft=5;fontSize=12;" parent="0A0NfgN1Bw4R6kFDzpNf-32" vertex="1">
          <mxGeometry y="0.5" width="32" height="32" relative="1" as="geometry">
            <mxPoint x="5" y="-16" as="offset" />
          </mxGeometry>
        </mxCell>
        <mxCell id="0A0NfgN1Bw4R6kFDzpNf-34" value="" style="endArrow=classic;startArrow=classic;html=1;fontSize=14;exitX=0.466;exitY=-0.005;exitDx=0;exitDy=0;exitPerimeter=0;" parent="1" source="0A0NfgN1Bw4R6kFDzpNf-9" edge="1">
          <mxGeometry width="50" height="50" relative="1" as="geometry">
            <mxPoint x="470" y="350" as="sourcePoint" />
            <mxPoint x="150" y="140" as="targetPoint" />
          </mxGeometry>
        </mxCell>
        <mxCell id="0A0NfgN1Bw4R6kFDzpNf-36" value="devices" style="outlineConnect=0;gradientColor=none;fontColor=#545B64;strokeColor=none;fillColor=#879196;dashed=0;verticalLabelPosition=bottom;verticalAlign=top;align=center;html=1;fontSize=12;fontStyle=0;aspect=fixed;shape=mxgraph.aws4.illustration_devices;pointerEvents=1" parent="1" vertex="1">
          <mxGeometry x="95" y="-16.819999999999993" width="100" height="73" as="geometry" />
        </mxCell>
        <mxCell id="0A0NfgN1Bw4R6kFDzpNf-37" value="" style="endArrow=classic;html=1;fontSize=14;" parent="1" edge="1">
          <mxGeometry width="50" height="50" relative="1" as="geometry">
            <mxPoint x="-10" y="30" as="sourcePoint" />
            <mxPoint x="80" y="30" as="targetPoint" />
          </mxGeometry>
        </mxCell>
        <mxCell id="0A0NfgN1Bw4R6kFDzpNf-39" value="" style="endArrow=classic;startArrow=classic;html=1;fontSize=14;" parent="1" target="0A0NfgN1Bw4R6kFDzpNf-36" edge="1">
          <mxGeometry width="50" height="50" relative="1" as="geometry">
            <mxPoint x="147" y="110" as="sourcePoint" />
            <mxPoint x="520" y="300" as="targetPoint" />
          </mxGeometry>
        </mxCell>
        <mxCell id="0A0NfgN1Bw4R6kFDzpNf-41" value="&lt;font size=&quot;1&quot;&gt;&lt;u style=&quot;font-size: 24px&quot;&gt;Stellar&lt;/u&gt;&lt;/font&gt;" style="text;html=1;align=center;verticalAlign=middle;resizable=0;points=[];autosize=1;strokeColor=none;fontSize=14;" parent="1" vertex="1">
          <mxGeometry x="510" y="-16.82" width="80" height="30" as="geometry" />
        </mxCell>
        <mxCell id="FUJXgZ0egaw-ze4dl95E-1" value="" style="endArrow=classic;startArrow=classic;html=1;entryX=0.181;entryY=-0.026;entryDx=0;entryDy=0;entryPerimeter=0;exitX=1;exitY=1;exitDx=0;exitDy=0;" edge="1" parent="1">
          <mxGeometry width="50" height="50" relative="1" as="geometry">
            <mxPoint x="260.57" y="399.9999999999998" as="sourcePoint" />
            <mxPoint x="259.4399999999999" y="505.05999999999995" as="targetPoint" />
          </mxGeometry>
        </mxCell>
        <mxCell id="FUJXgZ0egaw-ze4dl95E-2" value="HTTPS" style="edgeLabel;html=1;align=center;verticalAlign=middle;resizable=0;points=[];" vertex="1" connectable="0" parent="FUJXgZ0egaw-ze4dl95E-1">
          <mxGeometry x="-0.0419" y="-6" relative="1" as="geometry">
            <mxPoint y="-1" as="offset" />
          </mxGeometry>
        </mxCell>
      </root>
    </mxGraphModel>
  </diagram>
</mxfile>
